# generated from PmQm by Jehee Lee
:FULLY-SPECIFIED
:DEGREES
324
root 168.7086354 38.3712 -4.955872533 -2.860850981 -0.1509377756 -6.00340278
RightUpLeg -15.66977007 1.231451263 9.289374706
RightLeg 31.14521725 0 0
RightFoot -13.46567598 8.100701743 -8.318191918
RightToes -4.65663e-010 -1.59028e-015 9.93923e-017
Spine 11.726 -2.60317 5.82567
Spine1 6.47338 -2.54089 5.78465
HEad -24.2412 -3.10357 3.89569
LeftShoulder1 9.93923e-017 0 1.22299e-017
LeftArm 8.61067 22.2357 -85.2925
LeftForeArm -13.4799 -10.2754 -6.5115
LeftHand 0.966801 6.76273 -5.23509
RightShoulder 1.98785e-016 -4.96962e-017 1.55301e-017
RightArm 21.1494 -26.7792 85.283
RightForeArm -47.1605 21.303 -19.798
RightHand 1.77142 -12.6412 -10.7341
LeftUpLeg -20.65843845 -9.227431908 14.18764982
LeftLeg 72.07930187 -5.351975187 4.609979201
LeftFoot 11.91188143 5.771646588 -13.63884307
LeftToes 3.34876e-009 -9.68256e-011 -6.12847e-011
325
root 168.3728791 38.6473 -3.389526326 -2.771531433 -1.877040145 -4.814700525
RightUpLeg -12.05092691 2.487307224 8.847636377
RightLeg 29.12771369 0 0
RightFoot -14.50818302 8.705211104 -9.10915022
RightToes -4.65663e-010 -1.59028e-015 9.93923e-017
Spine 10.544 -1.56461 6.27104
Spine1 6.34221 -1.04208 3.61078
HEad -23.8667 -4.50181 4.70703
LeftShoulder1 9.93923e-017 0 1.22299e-017
LeftArm 5.28867 27.6326 -83.114
LeftForeArm -5.60139 -8.73321 -6.67232
LeftHand 1.03865 7.60637 -7.12809
RightShoulder 1.98785e-016 -4.96962e-017 1.55301e-017
RightArm 17.2161 -22.3891 84.3414
RightForeArm -43.2599 25.3039 -23.7617
RightHand 1.72606 -12.4269 -10.6532
LeftUpLeg -24.41310458 -8.04729088 11.76896632
LeftLeg 69.21758598 -5.741467579 3.73790131
LeftFoot 9.254293107 4.557905013 -12.19566159
LeftToes 3.34876e-009 -9.68256e-011 -6.12847e-011
326
root 168.0050205 38.8867 -1.85402643 -2.753697009 -3.772965457 -3.930675386
RightUpLeg -8.305581684 2.429193577 8.545025003
RightLeg 26.7665455 0 0
RightFoot -14.98468344 10.53800551 -9.577665237
RightToes -4.65663e-010 -1.59028e-015 9.93923e-017
Spine 9.49754 -0.66693 7.05194
Spine1 6.19194 0.274833 1.20644
HEad -23.6836 -5.44278 5.17766
LeftShoulder1 9.93923e-017 0 1.22299e-017
LeftArm 5.47849 33.6863 -79.9699
LeftForeArm -2.1133 -8.19818 -6.62251
LeftHand 1.06837 8.1092 -8.31732
RightShoulder 1.98785e-016 -4.96962e-017 1.55301e-017
RightArm 14.362 -17.9022 83.08
RightForeArm -39.7232 29.3161 -26.5765
RightHand 1.72927 -12.3401 -11.0197
LeftUpLeg -27.19721498 -6.807954553 9.697424374
LeftLeg 63.47924621 -5.483574767 3.238747216
LeftFoot 6.117849414 3.420179589 -10.91483625
LeftToes 3.34876e-009 -9.68256e-011 -6.12847e-011
327
root 167.6380942 39.001 -0.3700505897 -2.821576906 -5.851807186 -3.641136266
RightUpLeg -4.865427719 1.732494595 8.484670341
RightLeg 25.0992881 0 0
RightFoot -15.63169008 13.22197562 -10.1434686
RightToes -4.65663e-010 -1.59028e-015 9.93923e-017
Spine 8.70152 0.0867438 8.19458
Spine1 6.2006 1.3417 -0.748066
HEad -23.8707 -5.87373 5.37027
LeftShoulder1 9.93923e-017 0 1.22299e-017
LeftArm 11.2055 39.9798 -76.2586
LeftForeArm -5.67156 -8.95752 -6.5998
LeftHand 1.07461 8.23161 -8.54773
RightShoulder 1.98785e-016 -4.96962e-017 1.55301e-017
RightArm 13.7147 -13.1588 81.7802
RightForeArm -38.3163 32.3612 -28.9569
RightHand 1.78802 -12.4925 -11.5403
LeftUpLeg -28.70782835 -5.495245755 8.259031703
LeftLeg 55.00386606 -5.066783482 2.347867584
LeftFoot 3.797666351 2.588020155 -9.721712463
LeftToes 3.34876e-009 -9.68256e-011 -6.12847e-011
328
root 167.2732405 39.0092 1.085175881 -2.680738875 -8.102207317 -3.610955654
RightUpLeg -1.968529011 1.098769744 8.360810427
RightLeg 24.15943512 0 0
RightFoot -16.69310514 16.35704725 -11.1377151
RightToes -4.65663e-010 -1.59028e-015 9.93923e-017
Spine 7.96206 0.831893 9.00815
Spine1 6.28056 2.19189 -2.03462
HEad -24.3624 -5.97172 5.53587
LeftShoulder1 9.93923e-017 0 1.22299e-017
LeftArm 16.9362 45.936 -72.0542
LeftForeArm -9.88025 -9.46525 -6.6807
LeftHand 1.07079 8.12811 -8.18317
RightShoulder 1.98785e-016 -4.96962e-017 1.55301e-017
RightArm 13.8036 -8.44917 80.63
RightForeArm -37.5725 34.3422 -30.6085
RightHand 1.81121 -12.5672 -11.6895
LeftUpLeg -29.03845349 -4.186294814 7.124939704
LeftLeg 43.70137518 -4.857661889 0.8235347759
LeftFoot 3.240925056 2.068117329 -8.388142435
LeftToes 3.34876e-009 -9.68256e-011 -6.12847e-011
329
root 166.9109115 39.005 2.517995949 -2.360716581 -10.39474511 -3.286030001
RightUpLeg 0.6572310681 0.6199709462 7.74548093
RightLeg 23.15118898 0 0
RightFoot -17.62027649 19.2943788 -11.85953339
RightToes -4.65663e-010 -1.59028e-015 9.93923e-017
Spine 7.35728 1.58469 8.87212
Spine1 6.24816 2.91729 -3.01065
HEad -24.7422 -6.08716 5.80448
LeftShoulder1 9.93923e-017 0 1.22299e-017
LeftArm 18.0142 51.153 -67.3074
LeftForeArm -8.77522 -9.12467 -6.54071
LeftHand 1.05858 7.92107 -7.8928
RightShoulder 1.98785e-016 -4.96962e-017 1.55301e-017
RightArm 14.0752 -4.46115 79.8098
RightForeArm -36.8996 35.3706 -31.5274
RightHand 1.79471 -12.4785 -11.7117
LeftUpLeg -28.39843662 -3.755509439 6.009289205
LeftLeg 29.93257437 -4.402903399 -0.9375274078
LeftFoot 3.677746674 1.615469259 -7.253036072
LeftToes 3.34876e-009 -9.68256e-011 -6.12847e-011
330
root 166.5530333 38.9546 3.927866717 -2.271174701 -12.6288286 -2.751698973
RightUpLeg 3.057898608 0.1137584155 6.711362942
RightLeg 22.75087165 0 0
RightFoot -18.38864044 21.58910514 -12.0418175
RightToes -4.65663e-010 -1.59028e-015 9.93923e-017
Spine 7.1912 2.17375 8.32343
Spine1 6.09151 3.55713 -3.93331
HEad -24.8804 -6.38164 6.11359
LeftShoulder1 9.93923e-017 0 1.22299e-017
LeftArm 16.6384 55.2732 -62.3753
LeftForeArm -4.91851 -8.1463 -6.37039
LeftHand 1.04094 7.67846 -7.9839
RightShoulder 1.98785e-016 -4.96962e-017 1.55301e-017
RightArm 14.3678 -1.64748 79.4531
RightForeArm -36.1529 35.6068 -31.7851
RightHand 1.81423 -12.4821 -12.0491
LeftUpLeg -26.84866141 -3.081516787 4.352242374
LeftLeg 15.87020224 -4.986178575 -1.930387439
LeftFoot 3.135130099 0.9311697156 -6.475037553
LeftToes 3.34876e-009 -9.68256e-011 -6.12847e-011
331
root 166.1904825 38.7896 5.354206775 -2.516476705 -14.73681861 -2.264028966
RightUpLeg 4.97919073 -0.2848715443 5.455502437
RightLeg 24.0868126 0 0
RightFoot -19.41090709 23.37118085 -12.63147256
RightToes -4.65663e-010 -1.59028e-015 9.93923e-017
Spine 7.23532 2.47556 7.92586
Spine1 6.21102 4.04489 -4.79512
HEad -25.2244 -6.61818 6.40673
LeftShoulder1 9.93923e-017 0 1.22299e-017
LeftArm 14.6405 57.7756 -58.2111
LeftForeArm -1.65741 -5.96362 -6.73679
LeftHand 1.03479 7.60746 -8.22886
RightShoulder 1.98785e-016 -4.96962e-017 1.55301e-017
RightArm 14.3972 -0.0929144 79.6286
RightForeArm -35.3786 35.3487 -31.6164
RightHand 1.8616 -12.5989 -12.4627
LeftUpLeg -25.87965304 -2.909843901 2.947225591
LeftLeg 7.223999158 -4.876393727 -2.014325178
LeftFoot 0.2018417337 -0.1987907651 -5.59647173
LeftToes 3.34876e-009 -9.68256e-011 -6.12847e-011
332
root 165.8201061 38.5809 6.808314093 -2.563016591 -16.60797215 -1.600698246
RightUpLeg 6.049050935 -0.2308670158 3.917326384
RightLeg 26.6751665 0 0
RightFoot -20.11960584 24.78387547 -13.50757945
RightToes -4.65663e-010 -1.59028e-015 9.93923e-017
Spine 6.69263 2.55042 7.2177
Spine1 7.19855 4.3661 -5.51041
HEad -26.0757 -6.53755 6.84331
LeftShoulder1 9.93923e-017 0 1.22299e-017
LeftArm 10.2347 58.5218 -55.8397
LeftForeArm 2.69755 -4.30556 -6.5387
LeftHand 1.05717 7.94099 -8.28365
RightShoulder 1.98785e-016 -4.96962e-017 1.55301e-017
RightArm 13.8923 -0.0506497 80.2674
RightForeArm -34.94 35.1193 -31.4506
RightHand 1.87332 -12.6305 -12.5535
LeftUpLeg -26.4138319 -3.694372403 1.9074064
LeftLeg 6.541300245 -2.982638497 -1.413374226
LeftFoot -2.553867747 -1.377895139 -4.252054152
LeftToes 3.34876e-009 -9.68256e-011 -6.12847e-011
333
root 165.4257927 38.3001 8.351981676 -2.36732368 -18.64588742 -0.7277171058
RightUpLeg 6.149757465 0.339623604 2.024013327
RightLeg 30.62236229 0 0
RightFoot -19.86489834 25.84656228 -13.19114864
RightToes -4.65663e-010 -1.59028e-015 9.93923e-017
Spine 5.21975 2.70518 6.0309
Spine1 8.65811 4.60476 -5.93868
HEad -26.9366 -6.28415 7.62966
LeftShoulder1 9.93923e-017 0 1.22299e-017
LeftArm 4.19174 58.1474 -55.545
LeftForeArm 7.29784 -3.02087 -5.90132
LeftHand 1.1037 8.58805 -8.1092
RightShoulder 1.98785e-016 -4.96962e-017 1.55301e-017
RightArm 13.1919 -2.05245 81.2523
RightForeArm -35.1413 35.0937 -31.4151
RightHand 1.86845 -12.5977 -12.5878
LeftUpLeg -27.89176197 -5.387412304 0.9611906101
LeftLeg 11.38676695 0 0
LeftFoot -1.66179389 -1.961049398 -3.029311528
LeftToes 3.34876e-009 -9.68256e-011 -6.12847e-011
334
root 165.0099602 38.005 9.973222052 -2.451009726 -20.82023827 0.4206791394
RightUpLeg 5.40693597 0.8995279643 -0.4781275196
RightLeg 36.09981501 0 0
RightFoot -17.00992664 26.31227892 -11.72780227
RightToes -4.65663e-010 -1.59028e-015 9.93923e-017
Spine 3.76191 2.95616 4.29611
Spine1 9.64604 4.77833 -6.13923
HEad -27.0256 -6.15905 8.57341
LeftShoulder1 9.93923e-017 0 1.22299e-017
LeftArm -0.866657 57.2951 -56.9001
LeftForeArm 9.55706 -2.25566 -5.33033
LeftHand 1.14713 9.18798 -8.01582
RightShoulder 1.98785e-016 -4.96962e-017 1.55301e-017
RightArm 13.1172 -6.18648 82.6555
RightForeArm -35.5415 34.4728 -30.8661
RightHand 1.89407 -12.6323 -12.9089
LeftUpLeg -28.36715754 -9.100052555 1.836008758
LeftLeg 15.85046424 0 0
LeftFoot 2.932231834 4.062556809 -1.64457719
LeftToes 3.34876e-009 -9.68256e-011 -6.12847e-011
335
root 164.5975486 37.8146 11.56634398 -3.309027984 -22.75357034 2.269437946
RightUpLeg 3.867259436 0.09902269782 -4.028301133
RightLeg 43.16401355 0 0
RightFoot -9.901653176 26.09594478 -12.84795797
RightToes -4.65663e-010 -1.59028e-015 9.93923e-017
Spine 3.47079 2.96534 1.90233
Spine1 9.6864 4.68976 -6.34123
HEad -26.2354 -6.03788 9.04964
LeftShoulder1 9.93923e-017 0 1.22299e-017
LeftArm -4.09701 55.7206 -59.598
LeftForeArm 8.89934 -2.10719 -5.24747
LeftHand 1.16072 9.49446 -8.3886
RightShoulder 1.98785e-016 -4.96962e-017 1.55301e-017
RightArm 14.2745 -11.5973 84.6697
RightForeArm -35.8173 32.1225 -28.9437
RightHand 1.90851 -12.6848 -12.9657
LeftUpLeg -28.36083655 -11.57691002 1.472249134
LeftLeg 20.67521713 0 0
LeftFoot 5.218403195 7.884676253 -0.7298851191
LeftToes 3.34876e-009 -9.68256e-011 -6.12847e-011
336
root 163.887642 37.7182 12.90852178 -4.536929787 -24.48567787 4.366292467
RightUpLeg 0.8104021747 -0.6941139123 -6.563392567
RightLeg 51.51128835 0 0
RightFoot 1.557528124 23.24475374 -17.62952563
RightToes -4.65663e-010 -1.59028e-015 9.93923e-017
Spine 4.15874 2.71124 -0.932957
Spine1 9.31477 4.14942 -6.59038
HEad -25.1454 -5.45994 8.68311
LeftShoulder1 9.93923e-017 0 1.22299e-017
LeftArm -6.00728 52.6082 -63.4159
LeftForeArm 6.81209 -2.43652 -5.60379
LeftHand 1.14135 9.47044 -9.24529
RightShoulder 1.98785e-016 -4.96962e-017 1.55301e-017
RightArm 17.1853 -17.1058 87.1652
RightForeArm -37.4146 27.9141 -25.722
RightHand 1.82305 -12.5761 -11.8689
LeftUpLeg -27.65705815 -10.15765353 0.2030519277
LeftLeg 25.35544853 0 0
LeftFoot 3.148877708 7.680426446 -0.4277833591
LeftToes 3.34876e-009 -9.68256e-011 -6.12847e-011
